<?xml version="1.0" standalone="no"?>
<!DOCTYPE svg PUBLIC "-//W3C//DTD SVG 20010904//EN"
 "http://www.w3.org/TR/2001/REC-SVG-20010904/DTD/svg10.dtd">
<svg version="1.0" xmlns="http://www.w3.org/2000/svg"
 width="135.000000pt" height="135.000000pt" viewBox="0 0 135.000000 135.000000"
 preserveAspectRatio="xMidYMid meet">
<metadata>
Created by potrace 1.14, written by Peter Selinger 2001-2017
</metadata>
<g transform="translate(0.000000,135.000000) scale(0.100000,-0.100000)"
fill="#000000" stroke="none">
<path d="M0 675 l0 -575 675 0 675 0 0 575 0 575 -675 0 -675 0 0 -575z m1314
529 c14 -14 16 -76 16 -534 0 -458 -2 -520 -16 -534 -14 -14 -85 -16 -635 -16
-409 0 -627 4 -640 10 -18 10 -19 27 -19 535 0 463 2 525 16 539 14 14 85 16
639 16 554 0 625 -2 639 -16z"/>
<path d="M82 1108 c-11 -55 -8 -73 9 -48 8 13 10 13 18 0 6 -8 12 -12 15 -10
7 7 -16 110 -24 110 -4 0 -12 -24 -18 -52z m28 -3 c0 -8 -4 -15 -10 -15 -5 0
-7 7 -4 15 4 8 8 15 10 15 2 0 4 -7 4 -15z"/>
<path d="M565 1105 c0 -39 4 -55 13 -55 9 0 11 7 7 19 -3 11 -1 22 5 26 10 6
14 -7 11 -32 -1 -7 5 -13 14 -13 18 0 18 7 1 39 -12 21 -12 28 1 48 14 21 14
23 -1 23 -9 0 -16 -6 -16 -14 0 -8 -5 -18 -12 -22 -8 -5 -9 0 -6 14 4 13 1 22
-5 22 -8 0 -12 -20 -12 -55z"/>
<path d="M641 893 c2 -293 15 -712 17 -555 2 109 3 112 22 100 16 -10 19 -20
15 -52 -4 -31 -3 -38 6 -29 8 8 18 9 30 2 15 -8 20 -5 25 16 3 14 4 32 1 40
-7 16 49 31 83 22 11 -3 20 0 20 6 0 6 3 8 6 4 3 -3 1 -14 -5 -24 -6 -10 -11
-13 -11 -5 0 9 -5 10 -16 4 -9 -5 -26 -7 -37 -4 -14 4 -18 2 -12 -7 4 -7 18
-11 31 -8 13 2 24 0 24 -4 0 -5 -10 -10 -22 -10 -20 -1 -20 -2 -4 -6 15 -4 16
-7 5 -13 -9 -6 -5 -11 17 -16 16 -4 34 -11 41 -16 7 -5 18 -6 24 -2 8 4 9 3 5
-4 -5 -8 0 -12 13 -12 22 0 30 33 11 45 -5 3 -10 2 -10 -4 0 -6 -7 -8 -15 -5
-8 4 -15 1 -15 -5 0 -8 -6 -8 -20 1 -14 9 -16 14 -7 20 7 4 8 8 3 8 -5 0 -3 7
4 15 7 8 9 15 6 15 -4 0 0 7 8 16 9 8 19 13 23 11 5 -3 19 0 33 6 14 5 32 11
40 13 20 4 42 -16 36 -32 -3 -7 -1 -16 4 -19 16 -10 11 42 -5 59 -9 8 -15 17
-14 18 1 2 -6 28 -17 58 -27 78 -25 215 5 292 20 52 24 56 55 56 l33 0 -31
-54 c-17 -29 -36 -53 -43 -54 -6 0 -15 -5 -19 -12 -5 -7 -2 -9 8 -6 13 5 15
-3 12 -55 -2 -34 -3 -64 -4 -67 0 -3 -4 2 -10 10 -5 8 -13 11 -17 6 -4 -4 1
-14 12 -22 15 -11 17 -17 7 -23 -14 -8 -7 -61 8 -61 17 0 22 21 9 36 -10 13
-10 17 2 25 8 5 22 9 32 9 22 0 23 -38 1 -55 -14 -10 -15 -15 -4 -36 22 -42
50 -67 71 -62 10 3 16 9 13 14 -3 5 4 9 14 9 11 0 22 7 26 15 3 8 12 15 21 15
13 0 15 -21 15 -140 l0 -140 -70 0 c-70 0 -70 0 -97 38 -27 38 -28 38 -87 34
-49 -4 -62 -1 -72 13 -10 13 -26 18 -59 17 -36 0 -45 3 -41 14 3 8 1 14 -3 14
-12 0 -23 -29 -15 -41 7 -13 -10 -11 -23 2 -13 13 -55 8 -60 -7 -2 -6 3 -14
12 -18 9 -3 13 -2 10 3 -10 17 12 21 31 5 10 -9 13 -13 7 -9 -7 3 -13 2 -13
-3 0 -15 25 -21 41 -11 31 19 41 9 19 -20 -13 -20 -31 -31 -53 -34 -17 -2 85
-5 227 -5 l259 -2 -6 287 c-4 157 -7 358 -7 445 l0 158 -280 0 -280 0 1 -227z
m179 175 c32 -43 38 -73 18 -81 -9 -4 -10 -8 -2 -14 6 -4 10 -19 8 -33 -4 -36
-5 -37 -14 -15 -8 18 -9 18 -9 2 -1 -10 8 -30 19 -45 11 -15 22 -37 24 -49 3
-12 9 -30 14 -40 5 -10 10 -38 11 -63 2 -25 8 -48 14 -52 9 -5 9 -8 1 -8 -6 0
-14 -25 -16 -57 -3 -32 -16 -78 -28 -104 -19 -40 -26 -45 -56 -46 l-33 -1 24
37 c13 20 31 56 40 80 18 53 20 131 3 132 -7 0 -3 5 10 12 17 8 22 16 18 31
-3 12 -6 27 -6 35 0 7 -6 11 -15 7 -9 -3 -21 5 -32 22 -9 15 -26 36 -37 47
l-21 20 22 3 c12 2 24 10 27 18 5 12 1 12 -24 -1 -17 -9 -30 -20 -30 -25 0 -5
-7 -6 -17 -3 -10 4 -14 2 -9 -5 4 -6 -3 -12 -16 -14 -13 -2 -23 -9 -23 -17 0
-8 -8 -15 -17 -17 -16 -2 -18 10 -18 142 l0 144 70 0 70 0 30 -42z m40 27 c-7
-8 -9 -15 -5 -15 5 0 6 -3 2 -6 -3 -3 -16 3 -28 15 l-23 21 33 0 c29 0 32 -2
21 -15z m70 8 c0 -5 -4 -14 -8 -21 -7 -9 -13 -8 -27 8 -18 20 -18 20 8 20 15
0 27 -3 27 -7z m260 -34 c0 -21 -4 -39 -10 -39 -5 0 -10 4 -10 10 0 11 -70 31
-83 23 -14 -9 15 -23 36 -17 9 3 17 1 17 -5 0 -6 -3 -10 -7 -8 -5 1 -9 -1 -10
-5 -7 -21 0 -25 32 -18 l35 8 0 -56 c0 -53 -1 -54 -18 -39 -13 12 -17 26 -14
47 3 19 0 30 -7 30 -7 0 -10 -4 -7 -9 4 -5 -3 -7 -14 -4 -11 3 -23 16 -26 29
-4 14 -14 24 -24 24 -26 0 -33 15 -15 30 24 20 18 31 -10 18 -19 -8 -28 -8
-41 3 -14 11 -18 11 -30 -6 -8 -10 -15 -17 -17 -14 -1 2 -9 12 -16 21 -12 17
-5 18 113 17 l126 0 0 -40z m-218 -38 c2 -4 14 -12 27 -16 15 -4 21 -3 17 3
-4 6 2 8 14 5 11 -3 17 -9 14 -14 -3 -5 4 -9 16 -9 12 0 18 -4 15 -10 -3 -5 0
-10 8 -10 17 0 12 -33 -9 -64 -12 -17 -13 -16 -12 11 1 40 -18 73 -45 75 -12
1 -29 2 -38 3 -9 0 -24 7 -33 14 -19 16 -23 14 -28 -14 -3 -21 15 -27 41 -14
10 4 22 -2 33 -17 10 -13 25 -21 32 -18 7 3 19 -3 27 -12 12 -16 12 -17 -3
-11 -12 4 -18 2 -18 -8 0 -8 -8 -19 -19 -24 -19 -11 -31 -5 -31 13 0 6 5 4 10
-4 8 -13 10 -13 10 2 0 9 5 18 11 20 7 2 6 8 -3 15 -17 15 -37 3 -41 -25 -2
-12 -7 -25 -12 -29 -4 -5 -5 -2 -1 5 5 8 -1 12 -22 12 -16 0 -32 -3 -36 -7
-11 -11 -46 -11 -38 1 3 6 5 23 3 38 -3 35 8 56 20 37 6 -10 9 -8 9 9 0 12 -7
25 -15 28 -8 4 -12 10 -9 15 7 12 101 12 106 0z m-32 -141 c0 -5 -2 -10 -4
-10 -3 0 -8 5 -11 10 -3 6 -1 10 4 10 6 0 11 -4 11 -10z m-105 -106 c13 -5 14
-8 3 -15 -11 -7 -11 -9 1 -9 11 0 11 -3 1 -15 -16 -19 -31 -19 -56 1 -10 8
-13 13 -6 9 7 -4 12 0 12 9 0 8 6 17 13 19 6 3 13 6 14 6 1 1 9 -2 18 -5z
m331 -52 c0 -15 6 -26 12 -24 7 1 12 -2 12 -8 0 -5 -6 -10 -14 -10 -9 0 -13
-8 -10 -22 2 -13 1 -17 -2 -9 -5 11 -8 11 -15 0 -5 -9 -9 13 -9 56 0 55 3 67
13 57 6 -7 12 -25 13 -40z m-439 -18 c-3 -3 -12 -4 -19 -1 -8 3 -5 6 6 6 11 1
17 -2 13 -5z m-60 -36 c-3 -8 -6 -5 -6 6 -1 11 2 17 5 13 3 -3 4 -12 1 -19z
m43 -45 c0 -78 -18 -76 -21 2 -2 62 -1 65 11 65 6 0 10 -29 10 -67z m214 -171
c2 -4 -4 -8 -14 -8 -10 0 -16 4 -14 8 3 4 9 8 14 8 5 0 11 -4 14 -8z m-84
-214 c0 -5 -13 -8 -30 -8 -16 0 -30 5 -30 10 0 6 9 10 20 10 11 0 20 6 20 13
0 13 20 -12 20 -25z m61 23 c-7 -5 -10 -14 -7 -20 5 -7 -2 -11 -18 -11 -23 0
-25 2 -15 18 6 10 21 19 33 20 15 1 17 -1 7 -7z m54 1 c-3 -3 0 -11 6 -19 9
-10 6 -13 -16 -13 -22 0 -25 3 -16 13 6 8 9 16 6 19 -3 2 2 5 10 5 8 0 13 -3
10 -5z m65 -12 l20 -20 -31 0 c-25 0 -29 3 -20 13 6 8 8 17 4 20 -3 4 -3 7 0
7 4 0 16 -9 27 -20z"/>
<path d="M678 1079 c-10 -5 -18 -22 -18 -36 0 -27 55 -123 71 -123 19 0 70 95
67 124 -4 40 -31 56 -56 33 -17 -16 -20 -16 -25 -2 -7 17 -15 18 -39 4z"/>
<path d="M805 870 c3 -5 11 -10 16 -10 6 0 7 5 4 10 -3 6 -11 10 -16 10 -6 0
-7 -4 -4 -10z"/>
<path d="M830 824 c0 -8 5 -12 10 -9 6 4 8 11 5 16 -9 14 -15 11 -15 -7z"/>
<path d="M865 711 c-3 -5 -1 -12 5 -16 5 -3 10 1 10 9 0 18 -6 21 -15 7z"/>
<path d="M865 670 c3 -5 8 -10 11 -10 2 0 4 5 4 10 0 6 -5 10 -11 10 -5 0 -7
-4 -4 -10z"/>
<path d="M867 644 c-4 -4 -7 -14 -7 -23 0 -11 3 -12 11 -4 6 6 10 16 7 23 -2
6 -7 8 -11 4z"/>
<path d="M849 588 c-1 -7 -1 -17 0 -21 1 -5 -6 -24 -15 -43 -9 -19 -14 -37
-11 -40 6 -7 30 45 41 89 4 16 2 27 -4 27 -5 0 -11 -6 -11 -12z"/>
<path d="M888 953 c6 -2 18 -2 25 0 6 3 1 5 -13 5 -14 0 -19 -2 -12 -5z"/>
<path d="M880 936 c0 -10 28 -13 41 -5 10 6 7 9 -13 9 -16 0 -28 -2 -28 -4z"/>
<path d="M76 1005 c-20 -31 -20 -32 4 -45 21 -11 60 2 60 20 0 12 -32 50 -41
50 -4 0 -14 -11 -23 -25z"/>
<path d="M560 1012 c0 -9 9 -28 19 -41 l18 -24 18 26 c22 35 14 54 -24 55 -23
0 -31 -4 -31 -16z"/>
<path d="M1010 844 c0 -8 5 -12 10 -9 6 3 10 10 10 16 0 5 -4 9 -10 9 -5 0
-10 -7 -10 -16z"/>
<path d="M995 810 c-3 -5 -1 -10 4 -10 6 0 11 5 11 10 0 6 -2 10 -4 10 -3 0
-8 -4 -11 -10z"/>
<path d="M395 757 c-12 -10 -16 -22 -13 -40 4 -21 1 -27 -12 -27 -40 0 -53
-62 -18 -84 13 -8 23 -7 39 2 20 13 21 12 15 -12 -6 -23 -3 -26 18 -26 23 0
24 2 16 31 -9 31 -9 31 10 14 17 -15 24 -16 45 -7 41 19 29 82 -16 82 -12 0
-16 6 -12 19 7 26 -14 61 -35 61 -10 0 -26 -6 -37 -13z"/>
<path d="M976 731 c-4 -7 -5 -15 -2 -18 9 -9 19 4 14 18 -4 11 -6 11 -12 0z"/>
<path d="M970 680 c0 -5 5 -10 10 -10 6 0 10 5 10 10 0 6 -4 10 -10 10 -5 0
-10 -4 -10 -10z"/>
<path d="M1005 531 c-3 -5 -1 -12 5 -16 5 -3 10 1 10 9 0 18 -6 21 -15 7z"/>
<path d="M1030 480 c0 -5 5 -10 11 -10 5 0 7 5 4 10 -3 6 -8 10 -11 10 -2 0
-4 -4 -4 -10z"/>
<path d="M1050 450 c0 -5 7 -7 15 -4 8 4 15 8 15 10 0 2 -7 4 -15 4 -8 0 -15
-4 -15 -10z"/>
<path d="M989 443 c-1 -4 0 -26 0 -48 l2 -40 -20 25 c-11 14 -23 21 -27 17 -4
-4 -2 -7 4 -7 7 0 12 -13 12 -30 0 -37 24 -40 52 -7 17 19 18 22 4 25 -12 3
-15 11 -11 32 3 16 1 32 -5 35 -5 3 -10 3 -11 -2z"/>
<path d="M935 420 c-18 -8 -17 -9 8 -9 16 -1 26 3 22 9 -3 6 -7 10 -8 9 -1 0
-11 -4 -22 -9z"/>
<path d="M1094 403 c-43 -58 -57 -94 -45 -119 7 -16 19 -24 36 -24 14 0 25 5
25 10 0 6 8 5 20 -2 23 -15 53 -2 58 25 4 20 -20 72 -51 110 l-22 28 -21 -28z"/>
<path d="M1235 367 c-22 -35 -14 -54 24 -55 37 -1 41 20 12 57 l-18 24 -18
-26z"/>
<path d="M1220 286 c0 -2 7 -16 15 -32 13 -25 13 -31 -1 -51 -13 -20 -13 -23
1 -23 8 0 15 6 15 14 0 8 5 18 12 22 8 5 9 0 6 -14 -4 -13 -1 -22 5 -22 8 0
12 20 12 55 0 39 -4 55 -13 55 -9 0 -11 -7 -7 -19 3 -11 1 -22 -5 -26 -6 -4
-10 4 -10 19 0 16 -6 26 -15 26 -8 0 -15 -2 -15 -4z"/>
</g>
</svg>
